<?xml version="1.0" encoding="iso-8859-1"?>
<!-- Generator: Adobe Illustrator 19.0.0, SVG Export Plug-In . SVG Version: 6.00 Build 0)  -->
<svg version="1.1" id="Capa_1" xmlns="http://www.w3.org/2000/svg" xmlns:xlink="http://www.w3.org/1999/xlink" x="0px" y="0px"
	 viewBox="0 0 512 512" style="enable-background:new 0 0 512 512;" xml:space="preserve">
<g>
	<g>
		<path d="M470.858,288.164C497.801,265.415,512,238.536,512,210.131c0-37.144-24.341-71.638-68.539-97.126
			c-42.457-24.487-98.694-37.971-158.348-37.971c-59.654,0-115.89,13.485-158.348,37.97c-44.198,25.49-68.539,59.983-68.539,97.127
			c0,9.931,1.773,19.761,5.275,29.343C23.54,257.449,0,285.772,0,316.587c0,20.048,9.708,38.978,28.15,55.033l-7.053,54.008
			c-0.525,4.026,1.425,7.971,4.942,9.998c1.558,0.898,3.288,1.34,5.011,1.34c2.167,0,4.325-0.701,6.118-2.078l44.442-34.143
			c23.648,7.88,50.423,12.027,77.824,12.027c71.762,0,133.2-27.864,152.9-68.511c30.416-2.147,60.115-7.993,86.586-17.048
			l66.437,51.033c1.793,1.377,3.95,2.078,6.117,2.078c1.724,0,3.453-0.443,5.013-1.341c3.518-2.028,5.467-5.973,4.941-9.999
			L470.858,288.164z M249.729,374.194c-25.266,11.93-57.333,18.5-90.296,18.5c-27.133,0-53.485-4.373-76.207-12.646
			c-3.227-1.175-6.828-0.619-9.551,1.473l-29.532,22.69l4.634-35.485c0.458-3.507-0.963-6.996-3.742-9.185
			c-11.384-8.972-24.956-23.707-24.956-42.954c0-22.785,19.368-44.486,52.251-59.075c15.137,24.512,41.627,45.562,77.241,61.247
			c39.302,17.31,86.172,26.459,135.544,26.459c1.031,0,2.07-0.013,3.106-0.021C279.795,356.224,266.607,366.224,249.729,374.194z
			 M297.912,324.909c-4.287,0.149-8.57,0.232-12.798,0.232c-86.17,0-163.243-30.29-193.526-74.829
			c20.715-6.45,43.916-9.841,67.845-9.841c38.173,0,73.91,8.485,100.623,23.891c24.977,14.404,38.731,32.952,38.731,52.226
			C298.787,319.362,298.487,322.144,297.912,324.909z M453.966,276.033c-2.781,2.19-4.203,5.68-3.744,9.189l8.153,62.347
			l-51.544-39.595c-1.78-1.367-3.935-2.078-6.117-2.078c-1.155,0-2.317,0.2-3.434,0.606c-23.891,8.699-50.91,14.543-78.84,17.114
			c0.273-2.336,0.426-4.681,0.426-7.028c0-26.755-17.324-51.479-48.779-69.62c-29.717-17.138-69.015-26.577-110.654-26.577
			c-27.225,0-53.697,4.077-77.198,11.827c-2.606-7.259-3.929-14.658-3.929-22.086c0-29.665,20.772-57.982,58.49-79.733
			c39.455-22.754,92.129-35.286,148.317-35.286c56.188,0,108.862,12.531,148.317,35.285c37.718,21.753,58.49,50.07,58.49,79.734
			C491.922,233.691,478.797,256.479,453.966,276.033z"/>
	</g>
</g>
<g>
	<g>
		<path d="M470.544,199.603c-5.434-22.143-28.162-43.892-62.354-59.672c-5.034-2.321-10.998-0.126-13.323,4.909
			c-2.322,5.035-0.125,10.999,4.909,13.322c28.191,13.009,47.357,30.29,51.267,46.227c1.124,4.581,5.226,7.649,9.742,7.649
			c0.792,0,1.597-0.094,2.401-0.292C468.571,210.424,471.866,204.988,470.544,199.603z"/>
	</g>
</g>
<g>
	<g>
		<path d="M374.797,127.833c-12.919,0-12.941,20.078,0,20.078C387.717,147.911,387.739,127.833,374.797,127.833z"/>
	</g>
</g>
<g>
</g>
<g>
</g>
<g>
</g>
<g>
</g>
<g>
</g>
<g>
</g>
<g>
</g>
<g>
</g>
<g>
</g>
<g>
</g>
<g>
</g>
<g>
</g>
<g>
</g>
<g>
</g>
<g>
</g>
</svg>
